<svg width="21" height="19" viewBox="0 0 21 19" fill="none" xmlns="http://www.w3.org/2000/svg">
<path d="M11.3316 12.6949C11.4678 12.3606 11.3802 11.9798 11.1079 11.7198L9.07501 9.80675L9.10419 9.77889C10.7966 7.97727 12.0027 5.90634 12.7128 3.71468H14.5998C15.125 3.71468 15.5627 3.29678 15.5627 2.7953V2.77672C15.5627 2.27524 15.125 1.85734 14.5998 1.85734H8.75403V0.92867C8.75403 0.417901 8.31633 0 7.78136 0C7.24639 0 6.80869 0.417901 6.80869 0.92867V1.85734H0.962943C0.437701 1.85734 0 2.27524 0 2.77672C0 3.28749 0.437701 3.69611 0.962943 3.69611H10.8647C10.213 5.49773 9.18201 7.19719 7.78136 8.68306C6.9935 7.85655 6.33208 6.95574 5.77766 6.00849C5.62203 5.73918 5.33996 5.57202 5.01898 5.57202C4.34783 5.57202 3.91986 6.26852 4.25057 6.82572C4.86335 7.87512 5.61231 8.87808 6.48771 9.80675L2.23714 13.8093C1.84807 14.1715 1.84807 14.7659 2.23714 15.128C2.61648 15.4902 3.22926 15.4902 3.61833 15.128L7.78136 11.144L9.74615 13.02C10.2422 13.4936 11.0884 13.3171 11.3316 12.6949ZM16.0491 7.42936C15.4655 7.42936 14.9402 7.77297 14.736 8.30231L11.1663 17.4033C10.9328 17.9698 11.3802 18.5734 12.0125 18.5734C12.3918 18.5734 12.7323 18.3505 12.8684 18.0069L13.7341 15.7874H18.3543L19.2297 18.0069C19.3659 18.3412 19.7063 18.5734 20.0856 18.5734C20.7179 18.5734 21.1653 17.9698 20.9416 17.4033L17.3719 8.30231C17.1579 7.77297 16.6327 7.42936 16.0491 7.42936ZM14.4733 13.93L16.0491 9.90891L17.6248 13.93H14.4733Z" fill="url(#paint0_linear_13_83)"/>
<defs>
<linearGradient id="paint0_linear_13_83" x1="10.5" y1="0" x2="10.5" y2="18.5734" gradientUnits="userSpaceOnUse">
<stop stop-color="#0F00BF" stop-opacity="0"/>
<stop offset="0.0001" stop-color="#2952E1"/>
<stop offset="1" stop-color="#0F00BF"/>
</linearGradient>
</defs>
</svg>
