<svg width="273" height="38" viewBox="0 0 273 38" fill="none" xmlns="http://www.w3.org/2000/svg">
<path d="M7.992 3.736V30.76H20.952L20.136 37H0.119995V3.736H7.992Z" fill="#141414"/>
<path d="M45.3862 37H38.8102L38.4742 33.784C36.6182 36.472 34.0422 37.816 30.7462 37.816C28.4102 37.816 26.6342 37.112 25.4182 35.704C24.2342 34.296 23.6422 32.328 23.6422 29.8V11.512H31.2262V28.84C31.2262 30.088 31.4182 30.968 31.8022 31.48C32.2182 31.96 32.8422 32.2 33.6742 32.2C35.2742 32.2 36.6502 31.208 37.8022 29.224V11.512H45.3862V37Z" fill="#141414"/>
<path d="M62.391 10.696C64.151 10.696 65.735 10.952 67.143 11.464C68.551 11.976 69.879 12.76 71.127 13.816L67.863 18.328C66.263 17.112 64.647 16.504 63.015 16.504C61.319 16.504 60.039 17.128 59.175 18.376C58.311 19.624 57.879 21.64 57.879 24.424C57.879 27.112 58.311 29.016 59.175 30.136C60.039 31.256 61.287 31.816 62.919 31.816C63.783 31.816 64.567 31.688 65.271 31.432C65.975 31.144 66.823 30.696 67.815 30.088L71.127 34.792C68.599 36.808 65.735 37.816 62.535 37.816C59.943 37.816 57.703 37.272 55.815 36.184C53.927 35.064 52.471 33.512 51.447 31.528C50.423 29.512 49.911 27.16 49.911 24.472C49.911 21.784 50.423 19.4 51.447 17.32C52.471 15.24 53.927 13.624 55.815 12.472C57.703 11.288 59.895 10.696 62.391 10.696Z" fill="#141414"/>
<path d="M94.107 29.608C94.107 30.568 94.235 31.272 94.491 31.72C94.779 32.168 95.227 32.504 95.835 32.728L94.251 37.672C92.683 37.544 91.403 37.208 90.411 36.664C89.419 36.088 88.651 35.192 88.107 33.976C86.443 36.536 83.883 37.816 80.427 37.816C77.899 37.816 75.883 37.08 74.379 35.608C72.875 34.136 72.123 32.216 72.123 29.848C72.123 27.064 73.147 24.936 75.195 23.464C77.243 21.992 80.203 21.256 84.075 21.256H86.667V20.152C86.667 18.648 86.347 17.624 85.707 17.08C85.067 16.504 83.947 16.216 82.347 16.216C81.515 16.216 80.507 16.344 79.323 16.6C78.139 16.824 76.923 17.144 75.675 17.56L73.947 12.568C75.547 11.96 77.179 11.496 78.843 11.176C80.539 10.856 82.107 10.696 83.547 10.696C87.195 10.696 89.867 11.448 91.563 12.952C93.259 14.456 94.107 16.712 94.107 19.72V29.608ZM82.635 32.392C84.363 32.392 85.707 31.576 86.667 29.944V25.432H84.795C83.067 25.432 81.771 25.736 80.907 26.344C80.075 26.952 79.659 27.896 79.659 29.176C79.659 30.2 79.915 31 80.427 31.576C80.971 32.12 81.707 32.392 82.635 32.392Z" fill="#141414"/>
<path d="M108.655 10.696C110.479 10.696 112.191 10.968 113.791 11.512C115.391 12.056 116.799 12.824 118.015 13.816L115.231 18.088C113.151 16.776 111.055 16.12 108.943 16.12C107.951 16.12 107.183 16.296 106.639 16.648C106.127 16.968 105.871 17.432 105.871 18.04C105.871 18.52 105.983 18.92 106.207 19.24C106.463 19.528 106.959 19.832 107.695 20.152C108.431 20.472 109.567 20.856 111.103 21.304C113.759 22.072 115.727 23.08 117.007 24.328C118.319 25.544 118.975 27.24 118.975 29.416C118.975 31.144 118.479 32.648 117.487 33.928C116.495 35.176 115.135 36.136 113.407 36.808C111.679 37.48 109.759 37.816 107.647 37.816C105.503 37.816 103.503 37.48 101.647 36.808C99.8231 36.136 98.2711 35.208 96.9911 34.024L100.687 29.896C102.831 31.56 105.087 32.392 107.455 32.392C108.607 32.392 109.503 32.184 110.143 31.768C110.815 31.352 111.151 30.76 111.151 29.992C111.151 29.384 111.023 28.904 110.767 28.552C110.511 28.2 110.015 27.88 109.279 27.592C108.543 27.272 107.375 26.888 105.775 26.44C103.247 25.704 101.359 24.68 100.111 23.368C98.8631 22.056 98.2391 20.424 98.2391 18.472C98.2391 17 98.6551 15.688 99.4871 14.536C100.351 13.352 101.567 12.424 103.135 11.752C104.735 11.048 106.575 10.696 108.655 10.696Z" fill="#141414"/>
<path d="M171.473 3.736L165.905 37H155.681L151.553 11.608L147.185 37H137.201L131.729 3.736H139.601L142.913 31.048L147.521 3.736H155.777L160.097 31.048L163.985 3.736H171.473Z" fill="#141414"/>
<path d="M196.669 23.752C196.669 24.808 196.621 25.72 196.525 26.488H180.733C180.989 28.632 181.597 30.136 182.557 31C183.517 31.864 184.845 32.296 186.541 32.296C187.565 32.296 188.557 32.12 189.517 31.768C190.477 31.384 191.517 30.808 192.637 30.04L195.757 34.264C192.781 36.632 189.469 37.816 185.821 37.816C181.693 37.816 178.525 36.6 176.317 34.168C174.109 31.736 173.005 28.472 173.005 24.376C173.005 21.784 173.469 19.464 174.397 17.416C175.325 15.336 176.685 13.704 178.477 12.52C180.269 11.304 182.413 10.696 184.909 10.696C188.589 10.696 191.469 11.848 193.549 14.152C195.629 16.456 196.669 19.656 196.669 23.752ZM189.229 21.592C189.165 17.688 187.789 15.736 185.101 15.736C183.789 15.736 182.765 16.216 182.029 17.176C181.325 18.136 180.893 19.72 180.733 21.928H189.229V21.592Z" fill="#141414"/>
<path d="M215.377 10.696C218.417 10.696 220.753 11.896 222.385 14.296C224.017 16.664 224.833 19.992 224.833 24.28C224.833 26.904 224.417 29.24 223.585 31.288C222.785 33.336 221.617 34.936 220.081 36.088C218.577 37.24 216.785 37.816 214.705 37.816C213.329 37.816 212.065 37.528 210.913 36.952C209.793 36.376 208.833 35.576 208.033 34.552L207.649 37H200.929V1.38399L208.513 0.567993V14.104C209.281 13.048 210.257 12.216 211.441 11.608C212.657 11 213.969 10.696 215.377 10.696ZM212.497 32.296C215.473 32.296 216.961 29.624 216.961 24.28C216.961 21.24 216.609 19.144 215.905 17.992C215.201 16.84 214.177 16.264 212.833 16.264C211.137 16.264 209.697 17.256 208.513 19.24V29.848C208.993 30.616 209.569 31.224 210.241 31.672C210.945 32.088 211.697 32.296 212.497 32.296Z" fill="#141414"/>
<path d="M251.794 23.752C251.794 24.808 251.746 25.72 251.65 26.488H235.858C236.114 28.632 236.722 30.136 237.682 31C238.642 31.864 239.97 32.296 241.666 32.296C242.69 32.296 243.682 32.12 244.642 31.768C245.602 31.384 246.642 30.808 247.762 30.04L250.882 34.264C247.906 36.632 244.594 37.816 240.946 37.816C236.818 37.816 233.65 36.6 231.442 34.168C229.234 31.736 228.13 28.472 228.13 24.376C228.13 21.784 228.594 19.464 229.522 17.416C230.45 15.336 231.81 13.704 233.602 12.52C235.394 11.304 237.538 10.696 240.034 10.696C243.714 10.696 246.594 11.848 248.674 14.152C250.754 16.456 251.794 19.656 251.794 23.752ZM244.354 21.592C244.29 17.688 242.914 15.736 240.226 15.736C238.914 15.736 237.89 16.216 237.154 17.176C236.45 18.136 236.018 19.72 235.858 21.928H244.354V21.592Z" fill="#141414"/>
<path d="M269.878 10.792C270.806 10.792 271.654 10.904 272.422 11.128L271.222 18.472C270.262 18.248 269.494 18.136 268.918 18.136C267.414 18.136 266.262 18.664 265.462 19.72C264.694 20.744 264.086 22.296 263.638 24.376V37H256.054V11.512H262.678L263.302 16.456C263.878 14.696 264.742 13.32 265.894 12.328C267.078 11.304 268.406 10.792 269.878 10.792Z" fill="#141414"/>
</svg>
